HIERARCHY
ROOT Hips
{
	OFFSET 0.00 0.00 0.00
	CHANNELS 6 Xposition Yposition Zposition Xrotation Yrotation Zrotation
	JOINT Spine
	{
		OFFSET 0.00000 1.15266 1.72900
		CHANNELS 3 Xrotation Yrotation Zrotation
		JOINT Spine1
		{
			OFFSET 0.00000 0.40032 2.27031
			CHANNELS 3 Xrotation Yrotation Zrotation
			JOINT Spine2
			{
				OFFSET 0.00000 0.20092 2.29656
				CHANNELS 3 Xrotation Yrotation Zrotation
				JOINT Spine3
				{
					OFFSET 0.00000 0.00000 2.30533
					CHANNELS 3 Xrotation Yrotation Zrotation
					JOINT Neck
					{
						OFFSET 0.00000 -0.86449 6.05149
						CHANNELS 3 Xrotation Yrotation Zrotation
						JOINT Head
						{
							OFFSET 0.00000 -0.55043 3.12167
							CHANNELS 3 Xrotation Yrotation Zrotation
							End Site
							{
								OFFSET 0.00000 0.00000 3.73175
							}
						}
					}
					JOINT RightShoulder
					{
						OFFSET -0.78828 -1.31380 4.25672
						CHANNELS 3 Xrotation Yrotation Zrotation
						JOINT RightArm
						{
							OFFSET -3.91513 0.00000 0.00000
							CHANNELS 3 Xrotation Yrotation Zrotation
							JOINT RightForeArm
							{
								OFFSET -6.91491 0.00000 0.00000
								CHANNELS 3 Xrotation Yrotation Zrotation
								JOINT RightHand
								{
									OFFSET -6.09622 0.00000 0.00000
									CHANNELS 3 Xrotation Yrotation Zrotation
									JOINT RightHandEnd
									{
										OFFSET -1.74995 0.00000 0.00000
										CHANNELS 3 Xrotation Yrotation Zrotation
										End Site
										{
											OFFSET -1.74995 0.00000 0.00000
										}
									}
									JOINT RightHandThumb1
									{
										OFFSET -0.69998 -1.16663 -0.46665
										CHANNELS 3 Yrotation Xrotation Zrotation
										End Site
										{
											OFFSET -1.69032 -0.45292 0.00000
										}
									}
								}
							}
						}
					}
					JOINT LeftShoulder
					{
						OFFSET 0.78828 -1.31380 4.25672
						CHANNELS 3 Xrotation Yrotation Zrotation
						JOINT LeftArm
						{
							OFFSET 3.91513 0.00000 0.00000
							CHANNELS 3 Xrotation Yrotation Zrotation
							JOINT LeftForeArm
							{
								OFFSET 6.91491 0.00000 0.00000
								CHANNELS 3 Xrotation Yrotation Zrotation
								JOINT LeftHand
								{
									OFFSET 6.09622 0.00000 0.00000
									CHANNELS 3 Xrotation Yrotation Zrotation
									JOINT LeftHandEnd
									{
										OFFSET 1.74995 0.00000 0.00000
										CHANNELS 3 Xrotation Yrotation Zrotation
										End Site
										{
											OFFSET 1.74995 0.00000 0.00000
										}
									}
									JOINT LeftHandThumb1
									{
										OFFSET 0.69998 -1.16663 -0.46665
										CHANNELS 3 Yrotation Xrotation Zrotation
										End Site
										{
											OFFSET 1.69032 -0.45292 0.00000
										}
									}
								}
							}
						}
					}
				}
			}
		}
	}
	JOINT RightUpLeg
	{
		OFFSET -2.33857 0.00000 -0.68318
		CHANNELS 3 Xrotation Yrotation Zrotation
		JOINT RightLeg
		{
			OFFSET 0.00000 0.00000 -10.74496
			CHANNELS 3 Xrotation Yrotation Zrotation
			JOINT RightFoot
			{
				OFFSET 0.00000 0.00000 -10.93085
				CHANNELS 3 Xrotation Yrotation Zrotation
				JOINT RightToeBase
				{
					OFFSET 0.00000 -4.08727 -1.48765
					CHANNELS 3 Xrotation Yrotation Zrotation
					End Site
					{
						OFFSET 0.00000 -1.89187 -0.00000
					}
				}
			}
		}
	}
	JOINT LeftUpLeg
	{
		OFFSET 2.33857 0.00000 -0.68318
		CHANNELS 3 Xrotation Yrotation Zrotation
		JOINT LeftLeg
		{
			OFFSET 0.00000 0.00000 -10.74496
			CHANNELS 3 Xrotation Yrotation Zrotation
			JOINT LeftFoot
			{
				OFFSET 0.00000 0.00000 -10.93085
				CHANNELS 3 Xrotation Yrotation Zrotation
				JOINT LeftToeBase
				{
					OFFSET 0.00000 -4.08727 -1.48765
					CHANNELS 3 Xrotation Yrotation Zrotation
					End Site
					{
						OFFSET 0.00000 -1.89187 -0.00000
					}
				}
			}
		}
	}
}
MOTION
Frames: 14
Frame Time: 0.008342
 0.1081 -113.8641 24.4236 -6.3750 0.7993 174.1813 -0.0953 1.7897 0.3053 -0.3614 0.2761 0.1877 0.7990 -0.1400 4.9767 -1.4096 -0.8139 1.4970 -2.5341 -3.3677 -3.3142 3.3078 -1.2990 -7.1278 -6.4106 -0.5739 -2.4492 -10.4508 -2.0339 10.0589 0.0000 0.0000 12.1538 0.0637 4.7831 -15.3322 0.0000 -0.0000 -0.0000 -0.0000 -0.0000 -0.0000 -9.3109 1.9097 0.2116 -6.0004 0.1782 -15.5610 -0.0000 0.0000 2.3711 6.2266 11.8306 4.9716 0.0000 -0.0000 0.0000 -0.0000 0.0000 0.0000 -15.1304 1.0672 -2.8595 12.2683 0.0000 0.0000 -4.2579 0.8079 4.6097 1.6031 0.0000 0.0000 -6.0430 1.7069 2.9203 1.2763 0.0000 0.0000 -5.2588 0.9797 4.8866 -10.1323 0.0000 -0.0000
 0.1081 -113.8650 24.4234 -6.3677 0.8041 174.1599 -0.0959 1.7905 0.3042 -0.3563 0.2775 0.1900 0.8000 -0.1350 4.9915 -1.4097 -0.8159 1.4987 -2.5313 -3.3495 -3.3397 3.2812 -1.3179 -7.1767 -6.3771 -0.5726 -2.4202 -10.4395 -2.0332 10.0396 0.0000 0.0000 12.1569 0.0288 4.7986 -15.2990 0.0000 -0.0000 -0.0000 -0.0000 -0.0000 -0.0000 -9.2825 1.9371 0.2116 -5.9820 0.1641 -15.5388 -0.0000 0.0000 2.3764 6.2269 11.8070 4.9688 0.0000 0.0000 0.0000 0.0000 -0.0000 -0.0000 -15.1362 1.0678 -2.8506 12.2841 0.0000 0.0000 -4.2635 0.8201 4.6210 1.6123 0.0000 0.0000 -6.0476 1.7091 2.9275 1.3001 0.0000 0.0000 -5.2770 0.9724 4.8999 -10.1373 0.0000 -0.0000
 0.1081 -113.8662 24.4231 -6.3564 0.8128 174.1295 -0.0960 1.7904 0.3049 -0.3563 0.2760 0.1914 0.8068 -0.1218 5.0171 -1.4069 -0.8157 1.4986 -2.5237 -3.3294 -3.3747 3.2424 -1.3408 -7.2396 -6.3316 -0.5782 -2.3910 -10.4269 -2.0255 10.0290 0.0000 0.0000 12.1529 -0.0105 4.8141 -15.2635 0.0000 -0.0000 -0.0000 -0.0000 -0.0000 0.0000 -9.2468 1.9679 0.2027 -5.9610 0.1500 -15.5023 -0.0000 0.0000 2.3820 6.2317 11.7781 4.9645 -0.0000 0.0000 -0.0000 -0.0000 0.0000 0.0000 -15.1424 1.0714 -2.8391 12.3048 0.0000 0.0000 -4.2705 0.8335 4.6390 1.6213 0.0000 0.0000 -6.0504 1.7150 2.9441 1.3287 0.0000 0.0000 -5.2989 0.9583 4.9136 -10.1299 0.0000 -0.0000
 0.1080 -113.8674 24.4227 -6.3401 0.8248 174.0887 -0.0959 1.7912 0.3110 -0.3606 0.2674 0.1918 0.8190 -0.0962 5.0509 -1.4003 -0.8151 1.4952 -2.5101 -3.3073 -3.4164 3.1921 -1.3664 -7.3144 -6.2745 -0.5925 -2.3614 -10.4125 -2.0087 10.0312 0.0000 0.0000 12.1381 -0.0564 4.8292 -15.2291 -0.0000 0.0000 0.0000 -0.0000 -0.0000 0.0000 -9.2027 2.0044 0.1867 -5.9413 0.1322 -15.4524 -0.0000 0.0000 2.3879 6.2404 11.7474 4.9582 0.0000 0.0000 0.0000 0.0000 -0.0000 0.0000 -15.1477 1.0766 -2.8190 12.3299 0.0000 0.0000 -4.2784 0.8467 4.6591 1.6290 0.0000 0.0000 -6.0477 1.7243 2.9607 1.3571 0.0000 0.0000 -5.3225 0.9356 4.9385 -10.1080 0.0000 -0.0000
 0.1079 -113.8686 24.4224 -6.3199 0.8366 174.0418 -0.0988 1.7864 0.3152 -0.3659 0.2548 0.1921 0.8374 -0.0605 5.0930 -1.3909 -0.8112 1.4935 -2.4917 -3.2868 -3.4655 3.1313 -1.3927 -7.4013 -6.2072 -0.6167 -2.3347 -10.3995 -1.9826 10.0459 0.0000 0.0000 12.1126 -0.1044 4.8419 -15.1945 -0.0000 0.0000 0.0000 -0.0000 -0.0000 0.0000 -9.1497 2.0464 0.1636 -5.9267 0.1111 -15.3938 -0.0000 0.0000 2.3954 6.2524 11.7179 4.9499 -0.0000 0.0000 -0.0000 0.0000 0.0000 0.0000 -15.1482 1.0814 -2.8012 12.3519 0.0000 0.0000 -4.2833 0.8585 4.6873 1.6347 0.0000 0.0000 -6.0401 1.7337 2.9826 1.3849 0.0000 0.0000 -5.3472 0.9041 4.9651 -10.0684 0.0000 -0.0000
 0.1079 -113.8696 24.4221 -6.2923 0.8470 173.9903 -0.1009 1.7770 0.3196 -0.3720 0.2382 0.1924 0.8609 -0.0155 5.1407 -1.3784 -0.8054 1.4912 -2.4688 -3.2679 -3.5210 3.0622 -1.4186 -7.4958 -6.1324 -0.6492 -2.3115 -10.3887 -1.9490 10.0732 0.0000 0.0000 12.0775 -0.1529 4.8514 -15.1643 -0.0000 -0.0000 0.0000 0.0000 -0.0000 0.0000 -9.0906 2.0916 0.1341 -5.9174 0.0894 -15.3268 -0.0000 0.0000 2.4042 6.2666 11.6893 4.9409 -0.0000 0.0000 -0.0000 0.0000 0.0000 0.0000 -15.1371 1.0850 -2.7868 12.3665 0.0000 0.0000 -4.2845 0.8687 4.7228 1.6376 0.0000 0.0000 -6.0217 1.7423 3.0092 1.4089 0.0000 0.0000 -5.3714 0.8650 4.9926 -10.0109 0.0000 -0.0000
 0.1079 -113.8711 24.4219 -6.2752 0.8576 173.9350 -0.1154 1.7602 0.3239 -0.3808 0.2318 0.1964 0.8881 0.0239 5.1910 -1.3627 -0.7961 1.4875 -2.4448 -3.2497 -3.5793 2.9880 -1.4433 -7.5970 -6.0539 -0.6906 -2.2920 -10.3809 -1.9046 10.1105 0.0000 0.0000 12.0369 -0.2020 4.8549 -15.1421 -0.0000 0.0000 -0.0000 -0.0000 -0.0000 0.0000 -9.0287 2.1452 0.1011 -5.9155 0.0636 -15.2549 -0.0000 0.0000 2.4129 6.2817 11.6657 4.9315 -0.0000 -0.0000 -0.0000 -0.0000 0.0000 0.0000 -15.1370 1.0871 -2.7721 12.3776 0.0000 0.0000 -4.2804 0.8757 4.7618 1.6371 0.0000 0.0000 -6.0172 1.7500 3.0362 1.4370 0.0000 0.0000 -5.3964 0.8182 5.0251 -9.9355 0.0000 -0.0000
 0.1079 -113.8718 24.4217 -6.2406 0.8678 173.8767 -0.1133 1.7485 0.3310 -0.3914 0.1981 0.1934 0.9155 0.0965 5.2484 -1.3457 -0.7918 1.4840 -2.4191 -3.2367 -3.6407 2.9139 -1.4646 -7.7003 -5.9725 -0.7374 -2.2776 -10.3779 -1.8577 10.1561 0.0000 0.0000 11.9894 -0.2480 4.8541 -15.1261 -0.0000 0.0000 -0.0000 0.0000 -0.0000 -0.0000 -8.9655 2.1953 0.0634 -5.9208 0.0428 -15.1775 -0.0000 0.0000 2.4215 6.2948 11.6461 4.9234 0.0000 0.0000 0.0000 0.0000 -0.0000 0.0000 -15.1134 1.0904 -2.7564 12.3810 0.0000 0.0000 -4.2751 0.8802 4.8030 1.6338 0.0000 0.0000 -5.9861 1.7598 3.0660 1.4519 0.0000 0.0000 -5.4154 0.7657 5.0590 -9.8448 0.0000 -0.0000
 0.1079 -113.8732 24.4215 -6.2277 0.8769 173.8209 -0.1314 1.7244 0.3367 -0.4035 0.1958 0.1984 0.9460 0.1383 5.2991 -1.3283 -0.7790 1.4777 -2.3977 -3.2255 -3.7001 2.8417 -1.4821 -7.8039 -5.8961 -0.7868 -2.2646 -10.3788 -1.8077 10.2038 0.0000 0.0000 11.9409 -0.2890 4.8491 -15.1174 -0.0000 0.0000 0.0000 -0.0000 -0.0000 0.0000 -8.9047 2.2548 0.0294 -5.9347 0.0171 -15.1029 -0.0000 0.0000 2.4298 6.3042 11.6357 4.9176 0.0000 0.0000 0.0000 0.0000 -0.0000 -0.0000 -15.1107 1.0909 -2.7461 12.3784 0.0000 0.0000 -4.2626 0.8808 4.8474 1.6268 0.0000 0.0000 -5.9833 1.7663 3.0944 1.4746 0.0000 0.0000 -5.4348 0.7095 5.0934 -9.7424 0.0000 -0.0000
 0.1079 -113.8745 24.4215 -6.2126 0.8858 173.7680 -0.1428 1.7066 0.3424 -0.4160 0.1734 0.1978 0.9733 0.2011 5.3521 -1.3122 -0.7701 1.4733 -2.3809 -3.2202 -3.7603 2.7768 -1.4947 -7.9045 -5.8259 -0.8359 -2.2550 -10.3842 -1.7610 10.2460 0.0000 0.0000 11.8968 -0.3231 4.8404 -15.1173 0.0000 -0.0000 -0.0000 -0.0000 -0.0000 -0.0000 -8.8486 2.3108 -0.0039 -5.9556 -0.0020 -15.0322 -0.0000 0.0000 2.4403 6.3092 11.6303 4.9131 -0.0000 -0.0000 0.0000 0.0000 -0.0000 -0.0000 -15.1018 1.0924 -2.7385 12.3698 0.0000 0.0000 -4.2483 0.8792 4.8918 1.6178 0.0000 0.0000 -5.9746 1.7736 3.1245 1.4900 0.0000 0.0000 -5.4482 0.6526 5.1247 -9.6326 0.0000 -0.0000
 0.1081 -113.8757 24.4215 -6.2042 0.8920 173.7216 -0.1562 1.6854 0.3481 -0.4265 0.1635 0.2003 0.9986 0.2500 5.3957 -1.2991 -0.7597 1.4672 -2.3726 -3.2174 -3.8166 2.7223 -1.5037 -7.9998 -5.7657 -0.8800 -2.2462 -10.3927 -1.7212 10.2821 0.0000 0.0000 11.8571 -0.3498 4.8306 -15.1231 0.0000 0.0000 0.0000 -0.0000 0.0000 0.0000 -8.8008 2.3675 -0.0303 -5.9812 -0.0171 -14.9673 -0.0000 0.0000 2.4507 6.3078 11.6317 4.9133 0.0000 0.0000 0.0000 0.0000 0.0000 0.0000 -15.0939 1.0916 -2.7369 12.3514 0.0000 0.0000 -4.2291 0.8755 4.9359 1.6064 0.0000 0.0000 -5.9732 1.7778 3.1549 1.5051 0.0000 0.0000 -5.4582 0.5985 5.1499 -9.5225 0.0000 -0.0000
 0.1083 -113.8769 24.4216 -6.1999 0.8967 173.6830 -0.1672 1.6678 0.3510 -0.4349 0.1548 0.2033 1.0195 0.2921 5.4318 -1.2892 -0.7488 1.4639 -2.3745 -3.2176 -3.8705 2.6806 -1.5085 -8.0893 -5.7177 -0.9155 -2.2360 -10.4030 -1.6916 10.3008 0.0000 0.0000 11.8286 -0.3683 4.8209 -15.1344 0.0000 -0.0000 -0.0000 -0.0000 -0.0000 0.0000 -8.7609 2.4229 -0.0507 -6.0114 -0.0266 -14.9105 -0.0000 0.0000 2.4621 6.2992 11.6386 4.9172 -0.0000 0.0000 0.0000 0.0000 0.0000 0.0000 -15.0857 1.0905 -2.7413 12.3269 0.0000 0.0000 -4.2080 0.8710 4.9782 1.5941 0.0000 0.0000 -5.9753 1.7806 3.1847 1.5177 0.0000 0.0000 -5.4636 0.5495 5.1684 -9.4172 0.0000 -0.0000
 0.1087 -113.8780 24.4217 -6.1983 0.8995 173.6527 -0.1730 1.6524 0.3534 -0.4412 0.1469 0.2049 1.0357 0.3317 5.4612 -1.2835 -0.7393 1.4601 -2.3881 -3.2217 -3.9204 2.6532 -1.5105 -8.1725 -5.6820 -0.9430 -2.2244 -10.4151 -1.6737 10.3028 0.0000 0.0000 11.8120 -0.3784 4.8122 -15.1513 0.0000 -0.0000 -0.0000 0.0000 0.0000 -0.0000 -8.7325 2.4736 -0.0639 -6.0416 -0.0278 -14.8610 -0.0000 0.0000 2.4736 6.2846 11.6479 4.9282 -0.0000 -0.0000 -0.0000 -0.0000 0.0000 0.0000 -15.0763 1.0885 -2.7506 12.2973 0.0000 0.0000 -4.1855 0.8665 5.0169 1.5819 0.0000 0.0000 -5.9804 1.7815 3.2145 1.5295 0.0000 0.0000 -5.4654 0.5082 5.1784 -9.3226 0.0000 -0.0000
 0.1094 -113.8790 24.4220 -6.1983 0.8981 173.6329 -0.1724 1.6393 0.3556 -0.4444 0.1338 0.2036 1.0467 0.3754 5.4833 -1.2824 -0.7324 1.4546 -2.4147 -3.2313 -3.9664 2.6405 -1.5101 -8.2488 -5.6594 -0.9614 -2.2119 -10.4251 -1.6713 10.2893 0.0000 0.0000 11.8043 -0.3811 4.8084 -15.1684 -0.0000 0.0000 0.0000 0.0000 -0.0000 0.0000 -8.7143 2.5161 -0.0690 -6.0697 -0.0202 -14.8194 -0.0000 0.0000 2.4863 6.2637 11.6585 4.9430 0.0000 0.0000 -0.0000 -0.0000 -0.0000 0.0000 -15.0634 1.0832 -2.7640 12.2620 0.0000 0.0000 -4.1613 0.8626 5.0486 1.5699 0.0000 0.0000 -5.9886 1.7778 3.2414 1.5436 0.0000 0.0000 -5.4659 0.4770 5.1801 -9.2431 0.0000 -0.0000
